<svg height="56.693" viewBox="0 0 56.693 56.693" width="56.693" xmlns="http://www.w3.org/2000/svg"><path d="M28.348 5.158c-13.6 0-24.625 11.023-24.625 24.623 0 13.6 11.025 24.625 24.625 24.625 13.598 0 24.623-11.025 24.623-24.625s-11.026-24.623-24.623-24.623zm-16.501 27.966c-.011.078-.068.133-.138.133-.072 0-.128-.055-.138-.133l-.252-1.885.252-1.916c.01-.08.066-.137.138-.137.07 0 .127.057.138.137l.299 1.916-.299 1.885zm1.281 1.147c-.012.082-.071.139-.144.139s-.133-.059-.144-.141l-.339-3.029.339-3.1c.01-.08.071-.139.144-.139s.132.057.144.139l.385 3.1-.385 3.031zm1.385.513c-.01.096-.083.168-.173.168-.091 0-.164-.072-.173-.17l-.322-3.543.322-3.676c.009-.1.082-.172.173-.172.089 0 .163.072.173.172l.366 3.676-.366 3.545zm1.396.11c-.01.115-.097.199-.202.199-.107 0-.195-.084-.203-.199l-.304-3.653.305-3.777c.008-.115.095-.201.203-.201.105 0 .191.086.202.199l.345 3.779-.346 3.653zm1.407.031c-.009.131-.108.229-.231.229-.125 0-.225-.098-.232-.229l-.287-3.684.287-3.504c.008-.131.107-.23.232-.23.123 0 .223.098.231.227l.326 3.508-.326 3.683zm1.419.002v-.002c-.008.146-.123.26-.261.26-.139 0-.254-.113-.261-.258l-.27-3.686.27-5.701c.007-.145.122-.258.261-.258.138 0 .253.113.261.258l.306 5.701-.306 3.686zm1.429-.022v-.002c-.008.162-.135.287-.291.287s-.284-.125-.291-.285l-.252-3.662.252-7.006c.007-.162.135-.287.291-.287s.283.125.291.287l.285 7.006-.285 3.662zm1.441-.037v-.002c-.008.178-.148.316-.32.316-.174 0-.314-.139-.32-.314l-.235-3.625.235-7.59c.006-.178.146-.318.32-.318.172 0 .312.141.32.318l.265 7.59-.265 3.625zm1.452-.025v.004-.002c-.008.195-.16.346-.35.346s-.344-.152-.35-.344l-.217-3.604.217-7.846c.006-.195.16-.346.35-.346.19 0 .344.15.35.346l.245 7.846-.245 3.602v-.002zm1.463-.031v-.002c-.006.211-.172.379-.379.379-.208 0-.375-.168-.379-.377l-.2-3.568.2-7.645c.004-.211.171-.377.379-.377.207 0 .373.164.379.377l.225 7.645-.225 3.568zm1.474-.022v-.004c-.006.229-.186.408-.408.408-.225 0-.404-.18-.409-.404l-.183-3.545.183-7.367c.005-.229.185-.406.409-.406.223 0 .402.178.408.404l.204 7.369-.204 3.545zm1.485-.023v-.002c-.004.24-.201.438-.438.438-.238 0-.434-.197-.438-.436l-.166-3.523.166-8.764c.004-.24.199-.436.438-.436.236 0 .434.196.438.436l.185 8.766-.185 3.521zm1.478-.049v-.004c-.004.256-.213.465-.467.465s-.465-.209-.468-.463l-.191-3.471.191-9.559c.003-.257.214-.467.468-.467s.463.21.467.466l.209 9.56-.209 3.473zm12.624.492c-.075 0-11.754-.004-11.765-.006-.254-.025-.455-.242-.459-.502v-13.47c.004-.248.088-.375.409-.5.824-.318 1.757-.508 2.716-.508 3.912 0 7.119 3.001 7.457 6.826.505-.211 1.061-.328 1.642-.328 2.345 0 4.245 1.898 4.245 4.244 0 2.344-1.9 4.244-4.245 4.244z"/></svg>